<svg xmlns="http://www.w3.org/2000/svg" width="483.29388pt" height="247.64816pt" fill-rule="evenodd" viewBox="0 0 483.29388 247.64816"><g style="stroke-width:.796287"><path d="M480.569 121.638c-4.929-3.111-10.897.78-30.621 14.79-19.676 13.988-116.548 83.083-159.527 83.441-42.987-.358-139.856-69.453-159.532-83.441-19.72-14.01-25.694-17.901-30.621-14.79-4.933 3.113-1.55 14.278 7.527 27.766 55.801 72.929 110.818 110.819 132.62 124.319 13.339 8.258 30.476 15.338 50.006 15.534 19.526-.196 36.663-7.276 50.002-15.534 21.805-13.5 76.822-51.39 132.619-124.319 9.084-13.488 12.464-24.653 7.527-27.766M206.766 104.308c-.435 2.307-1.085 4.009-1.954 5.086-.874 1.084-2.02 1.619-3.455 1.619h-2.512l2.499-13.41h2.516q2.15.001 2.851 1.617c.468 1.072.482 2.767.055 5.088m8.802-8.633c-1.879-1.998-5.022-3.004-9.44-3.004h-12.769l-5.561 23.227h11.773c4.909 0 8.819-.965 11.718-2.886q4.35-2.885 5.744-8.704c.902-3.755.41-6.629-1.465-8.633M234.949 104.629c-1.044 4.236-3.37 7.354-5.201 6.973-1.825-.38-2.455-4.117-1.404-8.348 1.037-4.235 3.37-7.353 5.198-6.972 1.821.38 2.458 4.117 1.407 8.347m8.782-9.275c-1.953-2.201-5.039-3.296-9.247-3.296q-6.296-.001-10.741 3.29c-2.967 2.196-4.879 5.181-5.771 8.96-.878 3.778-.356 6.764 1.583 8.96 1.94 2.201 5.005 3.296 9.203 3.296 4.204 0 7.805-1.1 10.792-3.303 2.994-2.2 4.927-5.181 5.808-8.953q1.322-5.65-1.627-8.954M263.329 104.629c-1.045 4.236-3.371 7.354-5.198 6.973-1.827-.38-2.458-4.117-1.41-8.348 1.047-4.235 3.373-7.353 5.197-6.972 1.831.38 2.459 4.117 1.411 8.347m8.788-9.275c-1.959-2.201-5.052-3.296-9.256-3.296-4.191 0-7.778 1.095-10.735 3.29q-4.45 3.293-5.771 8.96-1.329 5.666 1.584 8.96c1.936 2.201 4.997 3.296 9.199 3.296q6.304 0 10.789-3.303c2.99-2.2 4.929-5.181 5.811-8.953.875-3.767.339-6.752-1.621-8.954M312.08 107.217l4.147-8.108.898 8.108zm12.023-14.546h-12.291l-14.552 23.227h10.391l2.211-4.332h7.751l.482 4.332h9.684zM353.161 92.671h-1.62l-2.625 13.373-3.783-13.373h-10.708l-5.056 23.227h9.497l2.727-13.934 3.946 13.934h10.036l5.06-23.227zM292.126 99.56h8.562c0-2.267.193-7.424-10.647-7.424-10.83 0-13.942 4.604-13.942 8.692 0 6.288 13.005 4.706 13.005 8.234 0 3.54-6.814 3.837-6.814-.548h-9.406c0 4.022 2.136 8.24 10.674 8.24 8.524 0 15.99-3.367 15.99-8.858 0-6.807-14.01-6.194-14.01-9.276 0-2.892 6.588-3.862 6.588.94" style="fill:#27335c;stroke:none;stroke-width:.796287" transform="matrix(1.25583 0 0 1.25583 -123.07 -115.609)"/><path d="M400.997 124.945c-5.662 0-13.067 2.535-18.079 7.742-3.872-5.414-10.653-7.735-18.581-7.735h-31.696s-2.774 9.186-3.601 12.31v-12.31h-38.545s-3.784 7.633-4.187 8.46c.047-.166 2.515-8.46 2.515-8.46h-59.367l-1.909 7.55a19 19 0 0 0-1.421-1.767c-3.431-3.725-8.209-5.783-13.437-5.783h-46.618l-25.173 109.172 8.314-1.494c.285-.047 28.777-5.176 47.992-9.079 2.882-.588 5.717-2.041 8.375-4.051l-.658 2.593 81.695-15.473s6.47-14.017 8.318-18.027c1.285-.16 1.799-.232 3.604-.464-.16 4.664-.563 16.664-.563 16.664l49.835-9.627s1.246-5.365 1.364-5.853l2.089 5.331 46.397-9.014c14.679-2.897 21.986-12.606 23.925-20.734.339-1.397.488-2.701.488-3.919 0-3.934-1.58-6.992-3.665-9.455l8.474.184.623-4.955 2.899-21.793z" style="fill:#27335c;stroke:none;stroke-width:.796287" transform="matrix(1.25583 0 0 1.25583 -123.07 -115.609)"/><path d="M211.77 172.452c8.524-4.265 12.783-14.581 13.76-26.54.759-9.221-5.215-15.39-12.841-15.39h-42.19l-22.276 96.628s28.498-5.121 47.869-9.066c15.027-3.052 30.258-38.766 15.678-45.632m-18.499 19.163c-1.56 7.532-5.486 8.509-11.627 8.264 1.309-6.384 3.028-16.046 3.028-16.046 9.657-.577 10.084.578 8.599 7.782m7.531-33.905c-1.557 7.525-5.483 8.519-11.631 8.263 1.313-6.39 3.035-16.052 3.035-16.052 9.657-.571 10.091.583 8.596 7.789" style="fill:#ffec00;stroke:none;stroke-width:.796287" transform="matrix(1.25583 0 0 1.25583 -123.07 -115.609)"/><path d="m421.978 146.025 2.048-15.503h-23.11c-6.28 0-17.517 5.24-18.032 14.539-.613 11.053 10.763 12.042 11.047 15.344.373 4.176-6.503 5.038-16.085 5.539-.489 4.17-1.723 13.135-1.723 13.135l-9.087-11.916c11.298-4.789 13.759-14.243 13.759-23.952 0-8.353-8.042-12.696-16.458-12.696-7.88 0-27.668.007-27.668.007l-13.196 49.748v-49.748h-29.52l-31.573 63.795 3.255-10.949-21.802 2.221 1.851-7.045 20.377-1.796 4.547-18.801-19.564.12 2.12-8.098h22.405l5.788-19.447H233.79l-21.328 84.463 70.296-13.31 8.412-18.217 13.152-1.683-.55 16.224s19.002-3.701 39.434-7.622l4.581-19.811 6.968 17.724a9520 9520 0 0 0 41.834-8.127c11.719-2.309 17.977-9.828 19.585-16.557 1.794-7.539-4.259-10.65-9.504-14.738-4.913-3.843 6.567-2.968 15.308-2.843m-116.917 17.581h-5.995l6.307-14.619zm55.221-11.916c-1.105 5.894-6.266 6.02-9.097 6.02.871-2.708 2.831-9.828 2.831-9.828 6.022-.377 6.849.671 6.266 3.808" style="fill:#ffec00;stroke:none;stroke-width:.796287" transform="matrix(1.25583 0 0 1.25583 -123.07 -115.609)"/></g></svg>