<svg xmlns="http://www.w3.org/2000/svg" xml:space="preserve" width="921.7948" height="613.09991" viewBox="0 0 921.79479 613.0999"><defs><clipPath id="a" clipPathUnits="userSpaceOnUse"><path d="M0 841.89h595.276V0H0Z"/></clipPath><clipPath id="b" clipPathUnits="userSpaceOnUse"><path d="M407.261 376.811c-7.721-30.883 11.055-62.175 41.943-69.896 30.884-7.716 62.177 11.058 69.889 41.942 7.731 30.884-11.057 62.178-41.94 69.895a57.754 57.754 0 0 1-14.02 1.734c-25.826-.003-49.331-17.484-55.872-43.675"/></clipPath><clipPath id="c" clipPathUnits="userSpaceOnUse"><path d="M0 841.89h595.276V0H0Z"/></clipPath></defs><g style="stroke-width:.679594"><g clip-path="url(#a)" style="stroke-width:.679594" transform="matrix(1.96196 0 0 -1.96196 -116.74 1181.565)"><g style="stroke-width:.679594"><path d="M0 0c-362.844-67.088-166.221 121.856-102.25 176.347.987.84.031 2.568-1.031 1.872-14.732-9.64-28.257-18.941-40.682-27.925 19.951 20.555 39.994 38.571 54.272 50.74 1.131.964.035 2.944-1.182 2.147C-538.778-90.096 44.142-100.896 117.393-70.299 198.061-36.602 27.486-1.166 27.486-1.166a1480.314 1480.314 0 0 0-18.29-3.265C3.863-1.592 0 0 0 0" style="fill:#b2b2b2;fill-opacity:1;fill-rule:nonzero;stroke:none;stroke-width:.679594" transform="translate(318.073 371.663)"/></g><g style="stroke-width:.679594"><path d="M0 0c-87.423-63.377-355.893-283.416 142.685-208.568 0 0 113.763-40.808 16.912-80.472C74.13-324.043-536.406-294.246-1.44 2.214.013 3.02 1.349.978 0 0" style="fill:#005bac;fill-opacity:1;fill-rule:nonzero;stroke:none;stroke-width:.679594" transform="translate(291.245 599.84)"/></g><g style="stroke-width:.679594"><path d="M0 0c-77.084-55.922-313.803-250.076 125.8-184.019 0 0 100.304-36.001 14.908-71.002C65.351-285.907-472.963-259.638-1.27 1.954.012 2.664 1.189.863 0 0" style="fill:#005bac;fill-opacity:1;fill-rule:nonzero;stroke:none;stroke-width:.679594" transform="translate(278.417 574.195)"/></g><g style="stroke-width:.679594"><path d="m0 0 70.978 10.427-5.874 39.112-193.051-31.611 3.075-25.471c-52.109.062-100.217 5.392-132.675 20.333 0 0 120.776-67.696 282.82-25.025C42.97-7.576 58.663-3.469 72.521.144l-1.349 8.988C49.682 5.984 25.483 2.763 0 0" style="fill:#18326c;fill-opacity:1;fill-rule:nonzero;stroke:none;stroke-width:.679594" transform="translate(407.658 359.929)"/></g><g style="stroke-width:.679594"><path d="m0 0 70.978 10.427-5.874 39.112-193.051-31.611 3.075-25.471c-52.109.062-100.217 5.392-132.675 20.333 0 0 120.776-67.696 282.82-25.025C42.97-7.576 58.663-3.469 72.521.144l-1.349 8.988C49.682 5.984 25.483 2.763 0 0Z" style="fill:none;stroke:#18326c;stroke-width:.339797;stroke-linecap:round;stroke-linejoin:round;stroke-miterlimit:10;stroke-dasharray:none;stroke-opacity:1" transform="translate(407.658 359.929)"/></g><g style="stroke-width:.679594"><path d="M0 0s-110.794-109.118 173.502-143.048C163.86-144.962-129.526-135.637 0 0" style="fill:#18326c;fill-opacity:1;fill-rule:nonzero;stroke:none;stroke-width:.679594" transform="translate(119.125 460.974)"/></g><g style="stroke-width:.679594"><path d="M0 0s-110.794-109.118 173.502-143.048C163.86-144.962-129.526-135.637 0 0Z" style="fill:none;stroke:#18326c;stroke-width:.339797;stroke-linecap:round;stroke-linejoin:round;stroke-miterlimit:10;stroke-dasharray:none;stroke-opacity:1" transform="translate(119.125 460.974)"/></g><g style="stroke-width:.679594"><path d="M0 0c-2.453 3.876-6.752 5.81-11.321 5.088l-17.916-2.829c-4.015-.634-7.698-3.23-10.045-6.943-.304.358-.63.693-.975 1.009-2.509 2.286-5.871 3.267-9.341 2.719l-17.92-2.83a12.855 12.855 0 0 1-2.287-.606c.077 1.808-.143 3.598-.709 5.267l-1.76 5.198c3.084 4.131 5.74 9.542 7.149 16.594 2.36 11.81-.838 18.687-3.935 22.375-7.486 8.908-20.391 6.871-24.631 6.201l-21.01-3.318c-2.229-.352-4.352-1.324-6.21-2.747-3.618 1.1-8.082 1.548-13.699.66-8.785-1.387-16.469-5.342-22.646-11.332l4.06 20.3c.871 4.361-.108 8.686-2.657 11.72-2.548 3.035-6.38 4.438-10.384 3.806l-18.163-2.868c-4.666-.737-8.793-4.092-10.982-8.632-2.407 3.822-6.679 5.843-11.335 5.107l-20.603-3.253c-1.166-.184-2.282-.574-3.359-1.063a11.7 11.7 0 0 1-3.474-.016l-27.763-4.384c-.327-.052-.646-.146-.968-.223-.329-.025-.657-.034-.991-.086l-17.917-2.83c-4.014-.633-7.696-3.23-10.044-6.942-.304.358-.629.693-.974 1.009-2.509 2.286-5.872 3.266-9.341 2.718l-17.92-2.829c-4.014-.634-7.696-3.23-10.044-6.943-.304.358-.63.693-.974 1.009-2.51 2.286-5.872 3.267-9.342 2.719l-24.387-3.851c-4.663-.737-8.901-4.126-11.098-8.88-2.199-4.755-2.021-10.145.464-14.119l5.387-8.613 3.199-57.359c.421-7.553 6.319-12.673 13.329-11.566l17.427 2.752c4.144.655 7.942 3.401 10.279 7.326 2.46-3.078 6.31-4.706 10.571-4.034l17.429 2.753c4.783.755 9.107 4.299 11.252 9.221l2.78 6.377c.149-1.978.689-3.85 1.588-5.499a16.743 16.743 0 0 1-1.365-2.365c-2.199-4.754-2.021-10.145.464-14.118l5.386-8.614 3.2-57.358c.42-7.553 6.319-12.673 13.328-11.565l17.427 2.751c4.144.655 7.942 3.401 10.28 7.326 2.46-3.078 6.31-4.706 10.57-4.034l17.43 2.752c4.783.756 9.106 4.299 11.251 9.221l4.892 11.22c.911-1.623 1.909-3.175 3.087-4.576 4.937-5.88 14.633-12.287 32.765-9.424 16.074 2.538 29.412 10.654 39.093 23.26l.09-1.631c.421-7.553 6.32-12.673 13.33-11.566l17.426 2.752c4.144.655 7.942 3.401 10.28 7.325 2.46-3.078 6.31-4.706 10.57-4.033l17.43 2.752c4.782.756 9.106 4.299 11.252 9.221L.651-13.833C2.702-9.131 2.453-3.879 0 0" style="fill:#111a39;fill-opacity:1;fill-rule:nonzero;stroke:none;stroke-width:.679594" transform="translate(451.533 474.755)"/></g><g style="stroke-width:.679594"><path d="m0 0 15.293 76.478 20.603 3.253 12.915-43.497 9.402 47.021 18.162 2.869L61.083 9.646 40.477 6.392 27.215 48.151 18.16 2.868Z" style="fill:#fff;fill-opacity:1;fill-rule:nonzero;stroke:none;stroke-width:.679594" transform="translate(209.28 444.893)"/></g><g style="stroke-width:.679594"><path d="m0 0 15.293 76.478 20.603 3.253 12.915-43.497 9.402 47.021 18.162 2.869L61.083 9.646 40.477 6.392 27.215 48.151 18.16 2.868Z" style="fill:none;stroke:#005bac;stroke-width:.679594;stroke-linecap:butt;stroke-linejoin:miter;stroke-miterlimit:10;stroke-dasharray:none;stroke-opacity:1" transform="translate(209.28 444.893)"/></g><g style="stroke-width:.679594"><path d="M0 0c-1.857-9.288 1.003-12.646 6.694-11.747 5.692.899 10.126 5.408 11.983 14.696 1.857 9.288-1.003 12.645-6.695 11.746C6.291 13.796 1.856 9.287 0 0m-10.847-1.713C-7.854 13.256.748 23.291 14.123 25.403 27.5 27.516 32.518 19.631 29.524 4.662 26.53-10.308 17.93-20.343 4.554-22.455c-13.376-2.112-18.395 5.772-15.401 20.742" style="fill:#fff;fill-opacity:1;fill-rule:nonzero;stroke:none;stroke-width:.679594" transform="translate(303.16 481.12)"/></g><g style="stroke-width:.679594"><path d="M0 0c-1.857-9.288 1.003-12.646 6.694-11.747 5.692.899 10.126 5.408 11.983 14.696 1.857 9.288-1.003 12.645-6.695 11.746C6.291 13.796 1.856 9.287 0 0Zm-10.847-1.713C-7.854 13.256.748 23.291 14.123 25.403 27.5 27.516 32.518 19.631 29.524 4.662 26.53-10.308 17.93-20.343 4.554-22.455c-13.376-2.112-18.395 5.772-15.401 20.742z" style="fill:none;stroke:#005bac;stroke-width:.611634;stroke-linecap:butt;stroke-linejoin:miter;stroke-miterlimit:10;stroke-dasharray:none;stroke-opacity:1" transform="translate(303.16 481.12)"/></g><g style="stroke-width:.679594"><path d="M0 0c-3.11-15.553 1.68-21.175 11.21-19.67 9.531 1.505 16.955 9.056 20.065 24.608 3.109 15.552-1.681 21.173-11.211 19.668C10.534 23.102 3.11 15.551 0 0m-18.163-2.868C-13.15 22.196 1.251 39 23.65 42.537c22.398 3.537 30.8-9.665 25.788-34.73C44.425-17.26 30.023-34.063 7.625-37.6c-22.398-3.537-30.8 9.665-25.788 34.732" style="fill:#fff;fill-opacity:1;fill-rule:nonzero;stroke:none;stroke-width:.679594" transform="translate(290.051 404.974)"/></g><g style="stroke-width:.679594"><path d="M0 0c-3.11-15.553 1.68-21.175 11.21-19.67 9.531 1.505 16.955 9.056 20.065 24.608 3.109 15.552-1.681 21.173-11.211 19.668C10.534 23.102 3.11 15.551 0 0Zm-18.163-2.868C-13.15 22.196 1.251 39 23.65 42.537c22.398 3.537 30.8-9.665 25.788-34.73C44.425-17.26 30.023-34.063 7.625-37.6c-22.398-3.537-30.8 9.665-25.788 34.732z" style="fill:none;stroke:#005bac;stroke-width:.679594;stroke-linecap:butt;stroke-linejoin:miter;stroke-miterlimit:10;stroke-dasharray:none;stroke-opacity:1" transform="translate(290.051 404.974)"/></g><g style="stroke-width:.679594"><path d="m0 0-19.657-48.994-.703 45.779-17.919-2.829-19.658-48.995-.703 45.779-17.919-2.829-6.466-1.021 7.161-11.451 3.398-60.945 17.427 2.752 18.638 42.72 2.212-39.427 17.429 2.752L17.917 2.83z" style="fill:#fff;fill-opacity:1;fill-rule:nonzero;stroke:none;stroke-width:.679594" transform="translate(170.102 512.769)"/></g><g style="stroke-width:.679594"><path d="m0 0-19.657-48.994-.703 45.779-17.919-2.829-19.658-48.995-.703 45.779-17.919-2.829-6.466-1.021 7.161-11.451 3.398-60.945 17.427 2.752 18.638 42.72 2.212-39.427 17.429 2.752L17.917 2.83z" style="fill:none;stroke:#005bac;stroke-width:.679594;stroke-linecap:butt;stroke-linejoin:miter;stroke-miterlimit:10;stroke-dasharray:none;stroke-opacity:1" transform="translate(170.102 512.769)"/></g><g style="stroke-width:.679594"><path d="m0 0-19.657-48.994-.703 45.779-17.919-2.83-19.658-48.994-.703 45.779-17.919-2.829-6.466-1.022 7.161-11.451 3.398-60.944 17.427 2.752 18.638 42.72 2.212-39.428 17.429 2.753L17.917 2.829z" style="fill:#fff;fill-opacity:1;fill-rule:nonzero;stroke:none;stroke-width:.679594" transform="translate(262.44 437.645)"/></g><g style="stroke-width:.679594"><path d="m0 0-19.657-48.994-.703 45.779-17.919-2.83-19.658-48.994-.703 45.779-17.919-2.829-6.466-1.022 7.161-11.451 3.398-60.944 17.427 2.752 18.638 42.72 2.212-39.428 17.429 2.753L17.917 2.829z" style="fill:none;stroke:#005bac;stroke-width:.679594;stroke-linecap:butt;stroke-linejoin:miter;stroke-miterlimit:10;stroke-dasharray:none;stroke-opacity:1" transform="translate(262.44 437.645)"/></g><g style="stroke-width:.679594"><path d="M0 0c-.929-4.644-3.977-5.759-8.939-6.543l-6.42-1.014 2.119 10.599 6.421 1.014C-1.857 4.839.929 4.644 0 0m-4.679 14.764-17.145-2.708-.12-.019-3.742-.591 2.746-4.39-8.137-40.692 10.846 1.713 2.73 13.657 6.179.976 4.272-12.552 12.939 2.044L.971-13.285c5.296 3.164 8.489 8.06 9.876 14.998 2.229 11.145-2.636 15.086-15.526 13.051" style="fill:#fff;fill-opacity:1;fill-rule:nonzero;stroke:none;stroke-width:.679594" transform="translate(362.88 497.163)"/></g><g style="stroke-width:.679594"><path d="M0 0c-.929-4.644-3.977-5.759-8.939-6.543l-6.42-1.014 2.119 10.599 6.421 1.014C-1.857 4.839.929 4.644 0 0Zm-4.679 14.764-17.145-2.708-.12-.019-3.742-.591 2.746-4.39-8.137-40.692 10.846 1.713 2.73 13.657 6.179.976 4.272-12.552 12.939 2.044L.971-13.285c5.296 3.164 8.489 8.06 9.876 14.998 2.229 11.145-2.636 15.086-15.526 13.051z" style="fill:none;stroke:#005bac;stroke-width:.611634;stroke-linecap:butt;stroke-linejoin:miter;stroke-miterlimit:10;stroke-dasharray:none;stroke-opacity:1" transform="translate(362.88 497.163)"/></g><g style="stroke-width:.679594"><path d="m0 0-19.657-48.994-.702 45.779-17.92-2.829-19.658-48.995-.702 45.779-17.92-2.829-6.465-1.021 7.161-11.451 3.397-60.945 17.427 2.752 18.639 42.72 2.212-39.427 17.428 2.752L17.917 2.83z" style="fill:#fff;fill-opacity:1;fill-rule:nonzero;stroke:none;stroke-width:.679594" transform="translate(422.655 462.945)"/></g><g style="stroke-width:.679594"><path d="m0 0-19.657-48.994-.702 45.779-17.92-2.829-19.658-48.995-.702 45.779-17.92-2.829-6.465-1.021 7.161-11.451 3.397-60.945 17.427 2.752 18.639 42.72 2.212-39.427 17.428 2.752L17.917 2.83z" style="fill:none;stroke:#005bac;stroke-width:.679594;stroke-linecap:butt;stroke-linejoin:miter;stroke-miterlimit:10;stroke-dasharray:none;stroke-opacity:1" transform="translate(422.655 462.945)"/></g><g style="stroke-width:.679594"><path d="m0 0-.841-.133-6.563-1.036 4.765-7.637-14.077-67.896 21.197 3.347 15.876 76.57z" style="fill:#fff;fill-opacity:1;fill-rule:nonzero;stroke:none;stroke-width:.679594" transform="translate(197.382 517.077)"/></g><g style="stroke-width:.679594"><path d="m0 0-.841-.133-6.563-1.036 4.765-7.637-14.077-67.896 21.197 3.347 15.876 76.57z" style="fill:none;stroke:#005bac;stroke-width:.679594;stroke-linecap:butt;stroke-linejoin:miter;stroke-miterlimit:10;stroke-dasharray:none;stroke-opacity:1" transform="translate(197.382 517.077)"/></g><g style="stroke-width:.679594"><path d="M0 0c-9.49-35.275-45.782-56.176-81.056-46.687-35.273 9.49-56.177 45.779-46.687 81.053 9.49 35.277 45.78 56.179 81.054 46.689C-11.416 71.565 9.49 35.276 0 0" style="fill:#111a39;fill-opacity:1;fill-rule:nonzero;stroke:none;stroke-width:.679594" transform="translate(527.049 345.651)"/></g><g style="stroke-width:.679594"><path d="M0 0c-8.271-30.739-39.893-48.956-70.633-40.686-30.734 8.269-48.951 39.893-40.681 70.633 8.269 30.741 39.894 48.953 70.628 40.685C-9.945 62.361 8.27 30.74 0 0" style="fill:#fff;fill-opacity:1;fill-rule:nonzero;stroke:none;stroke-width:.679594" transform="translate(518.835 347.862)"/></g><g style="stroke-width:.679594"><path d="M0 0a58.64 58.64 0 0 0-1.602-18.229c-7.825-31.306-39.553-50.34-70.865-42.515-17.876 4.468-31.747 16.74-38.904 32.275 3.878-21.65 20.031-40.097 42.762-45.781 30.883-7.717 62.176 11.058 69.888 41.942A57.361 57.361 0 0 1 0 0" style="fill:#d4d9dc;fill-opacity:1;fill-rule:nonzero;stroke:none;stroke-width:.679594" transform="translate(517.813 381.165)"/></g></g><g clip-path="url(#b)" style="stroke-width:.679594" transform="matrix(1.96196 0 0 -1.96196 -116.74 1181.565)"><g style="stroke-width:.679594"><path d="m0 0 1.57-2.343.35 3.639Z" style="fill:#005bac;fill-opacity:1;fill-rule:evenodd;stroke:none;stroke-width:.679594" transform="translate(397.397 328.04)"/></g><g style="stroke-width:.679594"><path d="m0 0-3.008 4.625 2.96 1.776 2.772-4.282z" style="fill:#005bac;fill-opacity:1;fill-rule:evenodd;stroke:none;stroke-width:.679594" transform="translate(399.425 329.384)"/></g><g style="stroke-width:.679594"><path d="m0 0-.076-7.114L2.585-4.93l.104 7.221Z" style="fill:#005bac;fill-opacity:1;fill-rule:evenodd;stroke:none;stroke-width:.679594" transform="translate(402.223 331.53)"/></g><g style="stroke-width:.679594"><path d="m0 0-3.656 3.705 2.79 2.317 3.435-3.453z" style="fill:#005bac;fill-opacity:1;fill-rule:evenodd;stroke:none;stroke-width:.679594" transform="translate(405.075 333.947)"/></g><g style="stroke-width:.679594"><path d="m0 0 .641-6.831 2.542 2.623-.607 6.959Z" style="fill:#005bac;fill-opacity:1;fill-rule:evenodd;stroke:none;stroke-width:.679594" transform="translate(407.73 336.565)"/></g><g style="stroke-width:.679594"><path d="m0 0-4.185 2.742 2.686 2.779L2.41 2.949Z" style="fill:#005bac;fill-opacity:1;fill-rule:evenodd;stroke:none;stroke-width:.679594" transform="translate(410.374 339.445)"/></g><g style="stroke-width:.679594"><path d="m0 0 1.353-6.321 2.398 3.117-1.363 6.42z" style="fill:#005bac;fill-opacity:1;fill-rule:evenodd;stroke:none;stroke-width:.679594" transform="translate(412.876 342.434)"/></g><g style="stroke-width:.679594"><path d="m0 0-4.575 1.779 2.374 3.195 4.336-1.658Z" style="fill:#005bac;fill-opacity:1;fill-rule:evenodd;stroke:none;stroke-width:.679594" transform="translate(415.295 345.71)"/></g><g style="stroke-width:.679594"><path d="m0 0 2.047-5.684 2.186 3.381L2.08 3.474Z" style="fill:#005bac;fill-opacity:1;fill-rule:evenodd;stroke:none;stroke-width:.679594" transform="translate(417.55 349.131)"/></g><g style="stroke-width:.679594"><path d="m0 0-4.963.685 2.131 3.547 4.667-.681Z" style="fill:#005bac;fill-opacity:1;fill-rule:evenodd;stroke:none;stroke-width:.679594" transform="translate(419.718 352.73)"/></g><g style="stroke-width:.679594"><path d="m0 0 2.801-4.965 1.89 3.728-2.864 4.939z" style="fill:#005bac;fill-opacity:1;fill-rule:evenodd;stroke:none;stroke-width:.679594" transform="translate(421.58 356.401)"/></g><g style="stroke-width:.679594"><path d="m0 0-5.157-.466 1.814 3.796 4.908.356Z" style="fill:#005bac;fill-opacity:1;fill-rule:evenodd;stroke:none;stroke-width:.679594" transform="translate(423.457 360.295)"/></g><g style="stroke-width:.679594"><path d="m0 0 3.435-4.086L4.912-.247l-3.457 4.1z" style="fill:#005bac;fill-opacity:1;fill-rule:evenodd;stroke:none;stroke-width:.679594" transform="translate(425.086 364.168)"/></g><g style="stroke-width:.679594"><path d="m0 0-5.318-1.403L-3.8 2.53l4.925 1.316Z" style="fill:#005bac;fill-opacity:1;fill-rule:evenodd;stroke:none;stroke-width:.679594" transform="translate(426.556 368.18)"/></g><g style="stroke-width:.679594"><path d="m0 0 4.021-3.144L5.12.812 1.055 4.02Z" style="fill:#005bac;fill-opacity:1;fill-rule:evenodd;stroke:none;stroke-width:.679594" transform="translate(427.769 372.187)"/></g><g style="stroke-width:.679594"><path d="m0 0-5.269-2.45 1.077 4.062L.785 3.943z" style="fill:#005bac;fill-opacity:1;fill-rule:evenodd;stroke:none;stroke-width:.679594" transform="translate(428.893 376.327)"/></g><g style="stroke-width:.679594"><path d="m0 0 4.435-2.157.768 3.948L.67 3.965Z" style="fill:#005bac;fill-opacity:1;fill-rule:evenodd;stroke:none;stroke-width:.679594" transform="translate(429.74 380.433)"/></g><g style="stroke-width:.679594"><path d="m0 0-5.187-3.481.719 4.094L.487 3.828z" style="fill:#005bac;fill-opacity:1;fill-rule:evenodd;stroke:none;stroke-width:.679594" transform="translate(430.37 384.552)"/></g><g style="stroke-width:.679594"><path d="m0 0 4.803-1.103.301 3.881L.233 3.904Z" style="fill:#005bac;fill-opacity:1;fill-rule:evenodd;stroke:none;stroke-width:.679594" transform="translate(430.864 388.572)"/></g><g style="stroke-width:.679594"><path d="m0 0-4.967-4.297.187 3.941L-.044 3.77z" style="fill:#005bac;fill-opacity:1;fill-rule:evenodd;stroke:none;stroke-width:.679594" transform="translate(431.126 392.599)"/></g><g style="stroke-width:.679594"><path d="m0 0 5.074-.012-.05 3.793-5.211-.026Z" style="fill:#005bac;fill-opacity:1;fill-rule:evenodd;stroke:none;stroke-width:.679594" transform="translate(431.123 396.486)"/></g><g style="stroke-width:.679594"><path d="m0 0-4.724-5.226-.125 3.837 4.452 4.845z" style="fill:#005bac;fill-opacity:1;fill-rule:evenodd;stroke:none;stroke-width:.679594" transform="translate(430.935 400.429)"/></g><g style="stroke-width:.679594"><path d="m0 0 5.224 1.043-.433 3.539-5.435-1.059Z" style="fill:#005bac;fill-opacity:1;fill-rule:evenodd;stroke:none;stroke-width:.679594" transform="translate(430.543 404.08)"/></g><g style="stroke-width:.679594"><path d="m0 0-4.292-5.779-.556 3.576 4.077 5.535z" style="fill:#005bac;fill-opacity:1;fill-rule:evenodd;stroke:none;stroke-width:.679594" transform="translate(429.892 407.644)"/></g><g style="stroke-width:.679594"><path d="m0 0 5.276 2.088-.895 3.264-5.386-2.119Z" style="fill:#005bac;fill-opacity:1;fill-rule:evenodd;stroke:none;stroke-width:.679594" transform="translate(429.132 411.103)"/></g><g style="stroke-width:.679594"><path d="m0 0-3.812-6.48-.985 3.282 3.611 6.105z" style="fill:#005bac;fill-opacity:1;fill-rule:evenodd;stroke:none;stroke-width:.679594" transform="translate(428.092 414.432)"/></g><g style="stroke-width:.679594"><path d="m0 0 5.241 3.059-.398 1.048C1.785 2.991-.747 1.565-.747 1.565Z" style="fill:#005bac;fill-opacity:1;fill-rule:evenodd;stroke:none;stroke-width:.679594" transform="translate(426.896 417.469)"/></g><g style="stroke-width:.679594"><path d="m0 0-2.151-4.485-1.115 2.41z" style="fill:#005bac;fill-opacity:1;fill-rule:evenodd;stroke:none;stroke-width:.679594" transform="translate(424.383 417.983)"/></g><g style="stroke-width:.679594"><path d="m0 0-2.531-1.239 1.521 3.323Z" style="fill:#005bac;fill-opacity:1;fill-rule:evenodd;stroke:none;stroke-width:.679594" transform="translate(502.559 299.747)"/></g><g style="stroke-width:.679594"><path d="m0 0 4.928 2.49L3.26 5.512l-4.545-2.315Z" style="fill:#005bac;fill-opacity:1;fill-rule:evenodd;stroke:none;stroke-width:.679594" transform="translate(501.474 301.93)"/></g><g style="stroke-width:.679594"><path d="m0 0-3.504-6.191-1.208 3.224 3.532 6.3z" style="fill:#005bac;fill-opacity:1;fill-rule:evenodd;stroke:none;stroke-width:.679594" transform="translate(500.142 305.187)"/></g><g style="stroke-width:.679594"><path d="m0 0 5.019 1.371-1.247 3.403-4.713-1.26Z" style="fill:#005bac;fill-opacity:1;fill-rule:evenodd;stroke:none;stroke-width:.679594" transform="translate(498.886 308.71)"/></g><g style="stroke-width:.679594"><path d="m0 0-3.979-5.588-.879 3.543L-.839 3.67z" style="fill:#005bac;fill-opacity:1;fill-rule:evenodd;stroke:none;stroke-width:.679594" transform="translate(497.896 312.307)"/></g><g style="stroke-width:.679594"><path d="m0 0 4.996.272-.927 3.751L-.6 3.76Z" style="fill:#005bac;fill-opacity:1;fill-rule:evenodd;stroke:none;stroke-width:.679594" transform="translate(497.055 316.124)"/></g><g style="stroke-width:.679594"><path d="m0 0-4.347-4.788-.505 3.898 4.398 4.87z" style="fill:#005bac;fill-opacity:1;fill-rule:evenodd;stroke:none;stroke-width:.679594" transform="translate(496.394 319.965)"/></g><g style="stroke-width:.679594"><path d="m0 0 4.85-.756L4.393 3.2l-4.582.741Z" style="fill:#005bac;fill-opacity:1;fill-rule:evenodd;stroke:none;stroke-width:.679594" transform="translate(495.946 324.013)"/></g><g style="stroke-width:.679594"><path d="m0 0-4.622-3.89L-4.81.13l4.759 3.917Z" style="fill:#005bac;fill-opacity:1;fill-rule:evenodd;stroke:none;stroke-width:.679594" transform="translate(495.71 328.104)"/></g><g style="stroke-width:.679594"><path d="m0 0 4.642-1.899-.058 4.137L.2 3.991Z" style="fill:#005bac;fill-opacity:1;fill-rule:evenodd;stroke:none;stroke-width:.679594" transform="translate(495.64 332.305)"/></g><g style="stroke-width:.679594"><path d="m0 0-4.916-2.889.228 4.175L.278 4.118z" style="fill:#005bac;fill-opacity:1;fill-rule:evenodd;stroke:none;stroke-width:.679594" transform="translate(495.879 336.413)"/></g><g style="stroke-width:.679594"><path d="m0 0 4.225-2.989.332 4.193L.49 3.974Z" style="fill:#005bac;fill-opacity:1;fill-rule:evenodd;stroke:none;stroke-width:.679594" transform="translate(496.209 340.723)"/></g><g style="stroke-width:.679594"><path d="m0 0-5.014-1.813.638 4.064L.679 4.062z" style="fill:#005bac;fill-opacity:1;fill-rule:evenodd;stroke:none;stroke-width:.679594" transform="translate(496.737 344.892)"/></g><g style="stroke-width:.679594"><path d="m0 0 3.898-3.883.656 4.166L.947 3.894Z" style="fill:#005bac;fill-opacity:1;fill-rule:evenodd;stroke:none;stroke-width:.679594" transform="translate(497.485 349.098)"/></g><g style="stroke-width:.679594"><path d="m0 0-5.056-.701 1.032 3.973 5.128.734z" style="fill:#005bac;fill-opacity:1;fill-rule:evenodd;stroke:none;stroke-width:.679594" transform="translate(498.438 353.175)"/></g><g style="stroke-width:.679594"><path d="m0 0 3.329-4.764L4.431-.708 1.295 3.806Z" style="fill:#005bac;fill-opacity:1;fill-rule:evenodd;stroke:none;stroke-width:.679594" transform="translate(499.547 357.32)"/></g><g style="stroke-width:.679594"><path d="m0 0-4.915.358L-3.6 4.159l5.014-.394Z" style="fill:#005bac;fill-opacity:1;fill-rule:evenodd;stroke:none;stroke-width:.679594" transform="translate(500.867 361.297)"/></g><g style="stroke-width:.679594"><path d="m0 0 2.737-5.613 1.436 3.901-2.674 5.268Z" style="fill:#005bac;fill-opacity:1;fill-rule:evenodd;stroke:none;stroke-width:.679594" transform="translate(502.394 365.176)"/></g><g style="stroke-width:.679594"><path d="m0 0-4.701 1.455 1.682 3.509 4.778-1.471Z" style="fill:#005bac;fill-opacity:1;fill-rule:evenodd;stroke:none;stroke-width:.679594" transform="translate(503.981 368.901)"/></g><g style="stroke-width:.679594"><path d="m0 0 2.141-6.209 1.817 3.501-2.041 5.949Z" style="fill:#005bac;fill-opacity:1;fill-rule:evenodd;stroke:none;stroke-width:.679594" transform="translate(505.784 372.514)"/></g><g style="stroke-width:.679594"><path d="m0 0-4.391 2.534 1.939 3.259 4.496-2.638Z" style="fill:#005bac;fill-opacity:1;fill-rule:evenodd;stroke:none;stroke-width:.679594" transform="translate(507.733 375.875)"/></g><g style="stroke-width:.679594"><path d="m0 0 1.467-6.892 2.036 3.256-1.43 6.427z" style="fill:#005bac;fill-opacity:1;fill-rule:evenodd;stroke:none;stroke-width:.679594" transform="translate(509.872 379.192)"/></g><g style="stroke-width:.679594"><path d="m0 0-4.012 3.527 2.159 2.842 4.165-3.64z" style="fill:#005bac;fill-opacity:1;fill-rule:evenodd;stroke:none;stroke-width:.679594" transform="translate(512.05 382.151)"/></g><g style="stroke-width:.679594"><path d="m0 0 .804-7.15 2.279 2.814-.746 6.832Z" style="fill:#005bac;fill-opacity:1;fill-rule:evenodd;stroke:none;stroke-width:.679594" transform="translate(514.4 384.908)"/></g><g style="stroke-width:.679594"><path d="m0 0-3.518 4.454 2.413 2.373 3.589-4.532Z" style="fill:#005bac;fill-opacity:1;fill-rule:evenodd;stroke:none;stroke-width:.679594" transform="translate(516.788 387.52)"/></g><g style="stroke-width:.679594"><path d="m0 0 .044-7.518 2.5 2.345-.062 7.094z" style="fill:#005bac;fill-opacity:1;fill-rule:evenodd;stroke:none;stroke-width:.679594" transform="translate(519.356 389.879)"/></g><g style="stroke-width:.679594"><path d="m0 0-3 5.275.867.709C-.042 3.482 1.423.981 1.423.981Z" style="fill:#005bac;fill-opacity:1;fill-rule:evenodd;stroke:none;stroke-width:.679594" transform="translate(521.92 391.904)"/></g><g style="stroke-width:.679594"><path d="m0 0-.399-4.957 2.184 1.523z" style="fill:#005bac;fill-opacity:1;fill-rule:evenodd;stroke:none;stroke-width:.679594" transform="translate(524.349 391.09)"/></g></g><g clip-path="url(#c)" style="stroke-width:.679594" transform="matrix(1.96196 0 0 -1.96196 -116.74 1181.565)"><g style="stroke-width:.679594"><path d="M0 0c-1.128 0-1.348.674-1.301 1.426h.927c0-.413.011-.768.517-.768.306 0 .457.198.457.494 0 .793-1.841.84-1.841 2.139 0 .695.33 1.24 1.447 1.24.89 0 1.33-.404 1.267-1.325H.58c0 .333-.047.67-.428.67-.283 0-.463-.159-.463-.465 0-.836 1.843-.762 1.843-2.132C1.532.133.696 0 0 0" style="fill:#005bac;fill-opacity:1;fill-rule:nonzero;stroke:none;stroke-width:.679594" transform="translate(450.706 376.268)"/></g><g style="stroke-width:.679594"><path d="M0 0h-.017l-.412-1.885h.878zm-1.767-3.535L-.545.853h1.2l1.194-4.388H.88l-.241.973H-.604l-.26-.973z" style="fill:#005bac;fill-opacity:1;fill-rule:nonzero;stroke:none;stroke-width:.679594" transform="translate(454.566 379.877)"/></g><g style="stroke-width:.679594"><path d="M0 0v4.388h1.477L2.161 1.4h.02l.72 2.988H4.33V0h-.887v3.381h-.016L2.586 0h-.879L.913 3.381H.899V0Z" style="fill:#005bac;fill-opacity:1;fill-rule:nonzero;stroke:none;stroke-width:.679594" transform="translate(457.065 376.342)"/></g><g style="stroke-width:.679594"><path d="M0 0c-1.141 0-1.351.674-1.298 1.426h.917c0-.413.017-.768.52-.768.315 0 .451.198.451.494 0 .793-1.833.84-1.833 2.139 0 .695.325 1.24 1.433 1.24.897 0 1.34-.404 1.286-1.325H.579c0 .333-.056.67-.424.67-.297 0-.472-.159-.472-.465 0-.836 1.839-.762 1.839-2.132C1.522.133.699 0 0 0" style="fill:#005bac;fill-opacity:1;fill-rule:nonzero;stroke:none;stroke-width:.679594" transform="translate(463.576 376.268)"/></g><g style="stroke-width:.679594"><path d="M0 0v-3.117c0-.649-.378-1.345-1.495-1.345-.998 0-1.49.518-1.49 1.345V0h.919v-3.045c0-.543.227-.759.565-.759.408 0 .579.269.579.759V0Z" style="fill:#005bac;fill-opacity:1;fill-rule:nonzero;stroke:none;stroke-width:.679594" transform="translate(468.965 380.73)"/></g><g style="stroke-width:.679594"><path d="M0 0v4.388h1.235l1.17-3.036h.014v3.036h.852V0H2.053L.863 3.203H.856V0Z" style="fill:#005bac;fill-opacity:1;fill-rule:nonzero;stroke:none;stroke-width:.679594" transform="translate(469.96 376.342)"/></g><g style="stroke-width:.679594"><path d="M0 0c.008.399-.056.765-.546.765-.569 0-.569-.778-.569-1.619 0-1.369.136-1.616.655-1.616.157 0 .321.032.454.088v.973h-.493v.666h1.42v-2.22c-.258-.044-.88-.148-1.245-.148-1.536 0-1.723.641-1.723 2.307C-2.047.3-1.989 1.42-.49 1.42.411 1.42.963.913.921 0z" style="fill:#005bac;fill-opacity:1;fill-rule:nonzero;stroke:none;stroke-width:.679594" transform="translate(476.242 379.379)"/></g><g style="stroke-width:.679594"><path d="m0 0-.621-2.44.712.198-1.281-4.905a5.047 5.047 0 0 1-.144-1.173c0-.823.233-1.534.688-2.043.435-.478 1.255-1.002 2.773-.791 1.182.158 2.263.74 3.248 1.692l.66.649-2.036 1.216-.392-.376a.415.415 0 0 1-.085-.078c.008.091.037.188.055.322L5.68.845l.31 1.288Z" style="fill:#898b8e;fill-opacity:1;fill-rule:nonzero;stroke:none;stroke-width:.679594" transform="translate(450.249 366.476)"/></g><g style="stroke-width:.679594"><path d="m0 0-.321.916 1.074.488C6.504 3.857 14.428 6.619 22.5 8.979c8.287 2.416 15.642 4.079 20.2 4.569l.795.085-.041-2.308-.569-.116c-3.918-.756-17.804-3.947-31.638-13.286l-.386-.27-.393.253C7.464-.208 3.271.042 1.043.036.716.036 0 0 0 0" style="fill:#898b8e;fill-opacity:1;fill-rule:nonzero;stroke:none;stroke-width:.679594" transform="translate(439.115 347.216)"/></g><g style="stroke-width:.679594"><path d="M0 0c-1.458-.267-2.674-1.478-2.748-2.782-.006-.045-.006-.095-.006-.151 0-.578.22-1.097.641-1.477.533-.474 1.309-.662 2.13-.523 1.457.258 2.663 1.48 2.746 2.782.04.638-.19 1.218-.644 1.63C1.596-.046.816.135 0 0" style="fill:#898b8e;fill-opacity:1;fill-rule:nonzero;stroke:none;stroke-width:.679594" transform="translate(453.876 372.495)"/></g><g style="stroke-width:.679594"><path d="m0 0-.652-2.507s.496.132.843.229C-.227-4.195-2.44-14.058-2.46-14.135c-.11-.368-.61-.642-1.032-.772l-.355-.115-1.132-3.749 1.393.576C.99-16.302 7.827-14.459 7.891-14.444l.373.095 1.574 4.378-1.703-.402a.826.826 0 0 1-.471-.264c-.22-.26-.901-.982-1.56-1.197-.046-.011-2.98-.817-3.006-.828-.011-.008-.017-.008-.017-.008.017.066 3.429 14.971 3.429 14.971Z" style="fill:#898b8e;fill-opacity:1;fill-rule:nonzero;stroke:none;stroke-width:.679594" transform="translate(439.812 368.798)"/></g><g style="stroke-width:.679594"><path d="M0 0c.094.014.177.014.267.009L-1.57-7.412c-.064-.277-.488-.51-.964-.542-.02 0-.043.003-.066.003.096.392 1.907 7.593 1.907 7.626.066.101.416.297.693.325m.449 2.787c-3.456-.419-6.065-2.492-6.806-5.39l-1.03-4.168v.018c-.363-1.334-.217-2.384.43-3.127.747-.859 2.04-1.17 3.87-.933 3.476.465 6.051 2.352 6.723 4.947l1.168 4.617c.316 1.34.16 2.388-.497 3.113-.738.832-2.037 1.144-3.858.923" style="fill:#898b8e;fill-opacity:1;fill-rule:nonzero;stroke:none;stroke-width:.679594" transform="translate(463.046 368.044)"/></g><g style="stroke-width:.679594"><path d="M0 0c-.707-.109-1.553-.405-2.298-.779.058.259.134.535.134.535L-8.22-2.499l-.574-2.418s.363.122.71.229c-.446-1.882-2.402-9.896-2.402-9.896l5.103 1.246 2.062 8.563c.13.499.371.818.803 1.006-.163-.71-1.216-5.157-1.216-5.157l-.077-.258c-.262-1.051-.639-2.479.148-3.367.43-.482 1.103-.664 1.992-.545 1.58.219 2.967 1.04 4.144 2.446l.51.629S1.237-8.926 1.077-8.813C1.463-7.2 2.42-3.217 2.42-3.217c.102.403.143.763.143 1.095 0 .643-.176 1.147-.533 1.539C1.57-.082.822.133 0 0" style="fill:#898b8e;fill-opacity:1;fill-rule:nonzero;stroke:none;stroke-width:.679594" transform="translate(477.753 373.797)"/></g><g style="stroke-width:.679594"><path d="M0 0c-2.938-.62-4.567-2.714-4.511-5.766.043-1.814 1.171-3.322 2.274-4.772.93-1.252 1.821-2.427 1.849-3.615.058-2.201-.919-2.512-1.238-2.577-.564-.13-.981.21-1.101.356.984.457 1.966 1.335 1.966 2.592 0 .08-.007.162-.007.253-.084.799-.469 1.244-.789 1.474-.701.509-1.524.392-1.76.346-1.723-.362-2.818-2.062-2.496-3.875.526-2.936 3.269-3.844 5.593-3.445 1.693.287 3.102 1.144 3.976 2.396.867 1.226 1.147 2.777.834 4.468-.319 1.753-1.254 3.127-2.157 4.458C1.5-6.319.609-5.013.537-3.439c-.024.495.126.874.28 1.014.059.062.099.07.139.062.054-.003.178-.011.311-.216.306-.468.359-1.424.095-2.138l-.083-.242.432-1.224 4.126 1.921-.054.52c-.137 1.223-.74 2.292-1.72 2.999C2.959.052 1.514.315 0 0" style="fill:#898b8e;fill-opacity:1;fill-rule:nonzero;stroke:none;stroke-width:.679594" transform="translate(485.687 375.055)"/></g><g style="stroke-width:.679594"><path d="M0 0c-1.214-.213-2.257-1.244-2.33-2.304v-.118c0-.432.17-.817.475-1.098.418-.362 1.032-.501 1.689-.396 1.22.22 2.257 1.252 2.323 2.306.04.481-.135.908-.47 1.215C1.279-.03.664.115 0 0" style="fill:#fff;fill-opacity:1;fill-rule:nonzero;stroke:none;stroke-width:.679594" transform="translate(453.962 371.985)"/></g><g style="stroke-width:.679594"><path d="m0 0-.351-1.383s.58.154.812.218c-.145-.622-2.842-12.692-2.851-12.71-.2-.696-1.02-1.021-1.37-1.132l-.1-.036-.741-2.45.4.164c4.595 1.914 11.468 3.752 11.535 3.771l.108.03 1.175 3.231-.623-.149c-.258-.058-.351-.082-.385-.16-.165-.187-.94-1.059-1.772-1.326l-3.046-.839c-.308-.069-.524-.069-.624.036-.084.083-.086.275-.017.539L5.376 1.891Z" style="fill:#fff;fill-opacity:1;fill-rule:nonzero;stroke:none;stroke-width:.679594" transform="translate(440.235 368.406)"/></g><g style="stroke-width:.679594"><path d="m0 0-.339-1.326s.519.139.727.192l-1.501-5.738a4.226 4.226 0 0 1-.138-1.064c0-.698.191-1.275.558-1.694.352-.377 1.029-.804 2.324-.628 1.059.148 2.049.669 2.953 1.553l.184.182-1.124.673-.111-.101c-.236-.232-.479-.365-.71-.392-.119-.013-.146.02-.157.036-.1.105-.17.454-.02 1.078l2.191 8.951z" style="fill:#fff;fill-opacity:1;fill-rule:nonzero;stroke:none;stroke-width:.679594" transform="translate(450.679 366.085)"/></g><g style="stroke-width:.679594"><path d="M0 0c.085.35.727.646 1.12.685.347.044.817-.011.923-.14.008-.007.02-.023.008-.051L.116-7.359c-.132-.497-.725-.881-1.439-.926-.214-.019-.448.064-.57.21a.287.287 0 0 0-.077.181.15.15 0 0 0 .008.051zm1.685 2.454C-1.552 2.056-3.983.14-4.683-2.556l-1.014-4.163c-.323-1.15-.22-2.034.307-2.646.614-.711 1.797-.97 3.417-.757 3.267.418 5.673 2.168 6.29 4.55L5.483-.949c.28 1.163.155 2.05-.37 2.643-.63.7-1.783.958-3.428.76" style="fill:#fff;fill-opacity:1;fill-rule:nonzero;stroke:none;stroke-width:.679594" transform="translate(461.865 367.868)"/></g><g style="stroke-width:.679594"><path d="M0 0c-1.004-.157-2.313-.719-3.191-1.338.052.199.193.788.193.788L-7.86-2.363l-.314-1.287s.536.155.727.216c-.147-.635-2.427-9.937-2.427-9.937l3.986.968 1.99 8.249c.163.739.589 1.207 1.291 1.443.275.095.489.058.569-.024.022-.022.089-.072.041-.222l-1.322-5.569-.076-.282c-.236-.931-.569-2.204.034-2.884.307-.354.833-.48 1.543-.377 1.453.194 2.727.954 3.803 2.26l.146.173-1.149.733-.117-.157c-.252-.361-.546-.531-.666-.503 0 .004-.016.024-.016.054 0 .033.016.074.033.125v.002l1.626 6.804c.084.354.128.684.128.968 0 .504-.128.894-.401 1.191C1.222-.043.652.113 0 0" style="fill:#fff;fill-opacity:1;fill-rule:nonzero;stroke:none;stroke-width:.679594" transform="translate(477.834 373.285)"/></g><g style="stroke-width:.679594"><path d="M0 0c-4.518-.479-11.851-2.14-20.102-4.551-8.059-2.349-15.959-5.103-21.697-7.55l-.214-.097.085-.285.22-.008c2.286.019 6.587-.251 9.7-2.191l.113-.079.106.079C-17.868-5.29-3.901-2.085.043-1.317l.152.029L.226.024z" style="fill:#fff;fill-opacity:1;fill-rule:nonzero;stroke:none;stroke-width:.679594" transform="translate(481.863 360.25)"/></g><g style="stroke-width:.679594"><path d="M0 0c-2.707-.565-4.157-2.422-4.094-5.244.026-1.653 1.113-3.094 2.147-4.48.993-1.316 1.939-2.558 1.964-3.905.049-1.738-.504-2.759-1.621-3.045-.426-.113-.974 0-1.394.275a1.486 1.486 0 0 0-.59.788c.95.291 2.21 1.113 2.21 2.345 0 .054-.003.122-.003.186-.053.505-.25.874-.584 1.116-.417.312-.979.333-1.352.256-1.475-.308-2.371-1.728-2.104-3.279.47-2.594 2.926-3.387 5.009-3.027 1.555.267 2.84 1.042 3.628 2.174.793 1.119 1.051 2.53.763 4.083-.303 1.65-1.205 2.982-2.089 4.268C.91-6.048-.008-4.676-.082-2.959c-.02.589.148 1.135.429 1.409a.682.682 0 0 0 .528.215c.297-.028.531-.177.724-.451.387-.606.449-1.717.136-2.6L1.72-4.45l.176-.517 3.28 1.527-.006.137c-.127 1.095-.654 2.026-1.522 2.648C2.666.058 1.373.291 0 0" style="fill:#fff;fill-opacity:1;fill-rule:nonzero;stroke:none;stroke-width:.679594" transform="translate(485.794 374.549)"/></g><g style="stroke-width:.679594"><path d="m0 0 .497.117-1.01-2.786s-6.893-1.838-11.571-3.772l.585 1.934c.642.203 1.31.619 1.509 1.275l2.921 13.041-.802-.213.244.944 4.923 1.745L-5.841-1.45c-.191-.724.124-.996.885-.821l3.054.849C-.896-1.101 0 0 0 0" style="fill:#005bac;fill-opacity:1;fill-rule:nonzero;stroke:none;stroke-width:.679594" transform="translate(448.035 357.71)"/></g><g style="stroke-width:.679594"><path d="M0 0c-.063-.972-1.032-1.921-2.158-2.121-1.131-.204-1.988.421-1.922 1.395.058.968 1.028 1.914 2.161 2.112C-.796 1.591.066.968 0 0" style="fill:#005bac;fill-opacity:1;fill-rule:nonzero;stroke:none;stroke-width:.679594" transform="translate(455.918 370.394)"/></g><g style="stroke-width:.679594"><path d="M0 0c-.26-.242-.537-.407-.828-.45-.51-.07-.576.583-.392 1.359l2.092 8.6-4.376-1.562-.223-.891.716.192-1.584-6.069c-.429-1.754.145-3.451 2.528-3.13 1.084.144 2.03.692 2.837 1.494z" style="fill:#005bac;fill-opacity:1;fill-rule:nonzero;stroke:none;stroke-width:.679594" transform="translate(454.353 357.985)"/></g><g style="stroke-width:.679594"><path d="M0 0c.636 2.631-.945 3.476-3.57 3.156-3.028-.376-5.501-2.133-6.204-4.859l-1.021-4.164c-.721-2.609.88-3.506 3.512-3.152 3.003.394 5.486 1.968 6.115 4.403zm-6.587-7.59c-.444-.034-.946.273-.865.695L-5.485.946c.115.466.85.799 1.3.846.391.041 1.247-.012 1.148-.44l-1.944-7.858c-.166-.637-.868-1.029-1.606-1.084" style="fill:#005bac;fill-opacity:1;fill-rule:nonzero;stroke:none;stroke-width:.679594" transform="translate(467.153 366.965)"/></g><g style="stroke-width:.679594"><path d="m0 0-.193-.836.72.215-2.431-9.957 3.536.868 1.967 8.132C3.801-.701 4.344-.236 5.026 0c.531.185.983-.024.867-.48L4.577-6.058C4.27-7.27 3.463-9.682 5.854-9.354c1.786.237 2.961 1.33 3.676 2.196l-.798.503c-.296-.415-.669-.659-.91-.583-.143.046-.172.25-.108.431L9.34-.009c.507 2.059-.627 2.487-1.607 2.328-1.219-.184-2.812-.957-3.56-1.662l.249.978z" style="fill:#005bac;fill-opacity:1;fill-rule:nonzero;stroke:none;stroke-width:.679594" transform="translate(470.14 370.765)"/></g><g style="stroke-width:.679594"><path d="M0 0c-.046.987.414 1.876 1.175 1.823C2.381 1.742 2.667-.18 2.221-1.483l.08-.25 2.952 1.38c-.25 2.229-2.33 3.666-4.936 3.124-2.8-.584-3.99-2.574-3.934-5.046C-3.56-5.392.437-7.772.504-10.662c.053-2.154-.816-2.995-1.78-3.251-.867-.218-2.134.346-2.27 1.417 1.007.242 2.369 1.095 2.243 2.355-.134 1.256-1.211 1.299-1.693 1.199-1.21-.253-2.084-1.38-1.978-2.756-10.073-1.396-29.136-7.114-40.386-11.92 3.159.017 7.02-.489 9.807-2.236C-24.37-18.31-12.449-14.307-4.75-12.676c.704-1.854 2.687-2.504 4.586-2.171 2.858.495 4.831 2.746 4.228 6.021C3.43-5.42.133-3.354 0 0" style="fill:#005bac;fill-opacity:1;fill-rule:nonzero;stroke:none;stroke-width:.679594" transform="translate(485.513 371.582)"/></g></g></g></svg>